# xmcd CD database file
#
# Track frame offsets:
#	150
#	18717
#	37555
#	56160
#	74727
#	93565
#
# Disc length: 1491 seconds
#
# Revision: 2
# Processed by: cddbd v1.5.2PL0 Copyright (c) Steve Scherf et al.
# Submitted via: CDex 1.70beta3
#
DISCID=4f05d106
DTITLE=KAT-TUN - TO THE LIMIT
DYEAR=2012
DGENRE=JPop
TTITLE0=TO THE LIMIT
TTITLE1=それぞれの空
TTITLE2=SPIRIT
TTITLE3=TO THE LIMIT（オリジナル・カラオケ）
TTITLE4=それぞれの空（オリジナル・カラオケ）
TTITLE5=SPIRIT（オリジナル・カラオケ）
EXTD=YEAR: 2012
EXTT0=
EXTT1=
EXTT2=
EXTT3=
EXTT4=
EXTT5=
PLAYORDER=
